<svg width="32" height="31" viewBox="0 0 31 31" xmlns="http://www.w3.org/2000/svg">
<path d="M11.8311 2.03922V5.4902L8.77031 6.07843V20.9804C8.77031 22.8627 9.2739 24.2745 10.2811 25.2157C11.3013 26.1438 12.6944 26.6078 14.4602 26.6078C16.2522 26.6078 17.6584 26.1438 18.6786 25.2157C19.6989 24.2876 20.209 22.8758 20.209 20.9804V6.07843L17.1678 5.4902V2.03922H28.9989V5.4902L25.9382 6.07843V20.9804C25.9382 24.183 24.8787 26.6536 22.7597 28.3922C20.6537 30.1307 17.8873 31 14.4602 31C11.0463 31 8.28634 30.1307 6.18042 28.3922C4.08758 26.6536 3.04116 24.183 3.04116 20.9804V6.07843L0 5.4902V2.03922H11.8311Z" fill="#A9EF91"/>
</svg>
