<svg width="15" height="13" viewBox="0 0 15 13"  xmlns="http://www.w3.org/2000/svg">
<path fill-rule="evenodd" clip-rule="evenodd" d="M1.5 12.75C1.08579 12.75 0.75 12.4142 0.75 12V5.24999C0.75 4.83578 1.08579 4.49999 1.5 4.49999H2.25C2.66421 4.49999 3 4.83578 3 5.24999V12C3 12.4142 2.66421 12.75 2.25 12.75H1.5ZM13.0227 4.20938C13.6977 4.20938 14.25 4.80065 14.25 5.52329C14.2403 6.52761 14.2162 7.08153 14.1778 7.18506C14.1394 7.2886 13.5089 8.88079 12.2864 11.9616C12.1023 12.4215 10.5902 12.75 10.0993 12.75H5.79C5.115 12.75 4.125 12.1587 4.125 11.436V4.49999L8.19543 0.287931L8.19774 0.285542C8.55929 -0.085944 9.15354 -0.0939983 9.52502 0.267552C9.64773 0.464643 9.77045 0.727432 9.77045 0.99022C9.77045 1.05592 9.77045 1.12161 9.77045 1.18731L9.15682 4.20938H13.0227Z"/>
</svg>
