<svg width="18" height="20" viewBox="0 0 18 20" fill="none" xmlns="http://www.w3.org/2000/svg">
<path fill-rule="evenodd" clip-rule="evenodd" d="M7.07107 14C4.86193 14 3.07107 12.2091 3.07107 10C3.07107 7.79086 4.86193 6 7.07107 6C9.28021 6 11.0711 7.79086 11.0711 10C11.0711 12.2091 9.28021 14 7.07107 14ZM0 17.0711L1.41421 15.6569C2.86193 17.1046 4.86193 18 7.07107 18C11.4893 18 15.0711 14.4183 15.0711 10C15.0711 5.58172 11.4893 2 7.07107 2V0C12.5939 0 17.0711 4.47715 17.0711 10C17.0711 15.5228 12.5939 20 7.07107 20C4.30964 20 1.80964 18.8807 0 17.0711Z" fill="white"/>
</svg>
